<svg version="1.1" id="Layer_1" xmlns="http://www.w3.org/2000/svg" xmlns:xlink="http://www.w3.org/1999/xlink" x="0px" y="0px"
	 width="100%" viewBox="0 0 517 483" enable-background="new 0 0 517 483" xml:space="preserve">
<path fill="#000000" opacity="1.000000" stroke="none" 
	d="
M518.000000,165.000000 
	C518.000000,271.666656 518.000000,377.833282 518.000000,483.999939 
	C345.666748,483.999969 173.333466,483.999969 1.000149,484.000000 
	C1.000100,323.000092 1.000100,162.000214 1.000050,1.000236 
	C173.333191,1.000157 345.666382,1.000157 517.999756,1.000079 
	C518.000000,55.500000 518.000000,110.000000 518.000000,165.000000 
M396.562775,320.911560 
	C396.653931,320.572784 396.745117,320.234009 396.964355,318.979370 
	C396.964355,312.752319 396.964355,306.525269 396.964355,299.987183 
	C403.150024,299.987183 408.756256,300.185425 414.340332,299.918762 
	C418.178741,299.735443 419.164734,301.298859 419.073456,304.867401 
	C418.934509,310.298676 419.272705,315.742188 419.330750,321.640625 
	C419.548615,321.822784 419.766479,322.004944 420.676819,322.548798 
	C421.188538,322.499695 421.700287,322.450592 422.895508,322.687439 
	C423.866974,322.597382 424.838440,322.507294 426.693573,322.640900 
	C428.202362,322.560974 429.711121,322.481018 432.076416,322.686981 
	C442.686218,322.756744 453.296051,322.826508 464.001953,323.850494 
	C464.001953,346.162201 464.001953,368.473938 464.001953,390.785645 
	C464.258545,390.788818 464.515106,390.791992 464.771698,390.795166 
	C464.771698,368.168427 464.771698,345.541656 464.958801,322.004669 
	C464.975342,308.209259 465.024597,294.413666 464.947662,280.618774 
	C464.941345,279.487457 464.075592,278.360931 462.763672,277.070557 
	C456.533844,277.114746 450.304047,277.158966 443.679230,277.038879 
	C443.679230,277.038879 443.251465,277.033752 442.848419,276.253510 
	C442.421509,268.939514 441.994629,261.625519 441.549652,254.001343 
	C437.386719,254.001343 433.261200,254.148666 429.151672,253.955399 
	C425.776855,253.796692 422.421051,253.233215 418.998810,251.933517 
	C418.929596,245.619614 418.860352,239.305710 418.927582,232.124481 
	C418.024139,231.739456 417.123718,231.030243 416.216736,231.021683 
	C410.014496,230.963058 403.810852,231.051529 397.498993,231.011871 
	C397.498993,231.011871 397.420746,231.122375 397.052612,230.219086 
	C396.982239,215.187912 396.911896,200.156738 396.955872,184.219284 
	C396.959473,180.082886 397.062897,175.943680 396.946472,171.810654 
	C396.682434,162.437790 396.344086,153.066467 395.936371,143.698853 
	C395.888336,142.595169 395.217651,141.518570 394.204041,140.238846 
	C393.772339,140.291916 393.340668,140.344986 392.002228,140.202576 
	C357.326843,140.168106 322.651459,140.140091 287.976105,140.082260 
	C286.000397,140.078964 284.025116,139.831619 282.161438,139.131042 
	C282.099548,138.752533 282.037628,138.374039 282.152344,137.072815 
	C282.081360,123.392532 282.010376,109.712250 282.102386,95.587502 
	C282.102386,95.587502 282.146881,95.116188 282.875275,94.935074 
	C283.857361,94.790092 284.839478,94.645119 286.758209,94.713959 
	C292.069153,94.725395 297.380341,94.773018 302.691040,94.741493 
	C318.776978,94.646004 334.862793,94.519859 351.851959,94.694794 
	C366.380829,94.694794 380.909668,94.694794 395.713593,94.694794 
	C395.825897,92.923508 395.917267,91.482803 396.774963,89.616409 
	C396.849487,76.758041 396.943512,63.899673 396.937378,51.041336 
	C396.937103,50.438560 396.044403,49.836212 394.701813,49.051350 
	C387.947266,49.051350 381.192719,49.051350 373.970703,49.051350 
	C373.970703,46.631363 374.037018,44.679798 373.957916,42.734146 
	C373.746002,37.520763 373.471771,32.309917 372.757233,26.307859 
	C350.166718,26.256989 327.576202,26.206118 304.059906,26.012228 
	C252.524582,26.008854 200.989258,26.004902 149.453934,26.005774 
	C148.293106,26.005793 147.088120,25.891945 145.994614,26.178270 
	C145.594528,26.283030 145.458939,27.397924 145.044296,28.970535 
	C145.044296,35.526279 145.044296,42.082027 145.044296,49.002308 
	C142.735062,49.002308 140.947662,48.942974 139.165405,49.013432 
	C133.809204,49.225170 128.455017,49.487522 122.311707,50.210129 
	C122.205292,64.684967 122.088936,79.159775 122.035103,93.634811 
	C122.033279,94.124863 122.660782,94.617256 123.002449,95.741653 
	C123.055450,96.158318 123.108444,96.574982 123.021713,97.758537 
	C123.069031,111.171021 123.116356,124.583504 123.026146,138.821289 
	C123.056808,139.381058 123.087471,139.940811 123.033173,140.630630 
	C123.033173,140.630630 123.158310,140.722702 122.336044,141.167526 
	C122.223595,143.479691 122.018196,145.791626 122.012840,148.104034 
	C121.948906,175.728729 121.914696,203.353500 121.330994,230.993088 
	C121.158127,231.045502 120.985260,231.097900 119.982132,231.035126 
	C113.703934,231.415619 107.425735,231.796127 100.307541,232.244568 
	C100.257523,238.912704 100.207512,245.580856 100.031075,252.447372 
	C100.031075,252.447372 100.057976,252.681046 99.459702,252.987183 
	C99.195610,253.343384 98.931511,253.699600 98.442619,254.021744 
	C98.442619,254.021744 98.251671,254.145187 97.269722,254.019196 
	C90.553474,254.019196 83.837227,254.019196 76.835434,254.019196 
	C76.835434,262.102142 76.835434,269.542389 75.919197,277.001129 
	C69.094307,277.059570 62.269413,277.117981 54.480980,277.125793 
	C54.368206,292.088318 54.255428,307.050873 54.014900,322.443085 
	C54.014900,322.443085 54.122204,322.878296 54.023964,323.833344 
	C54.023964,346.002411 54.023964,368.171509 54.023964,390.340576 
	C54.349010,390.340027 54.674057,390.339478 54.999104,390.338898 
	C54.999104,367.909576 54.999104,345.480255 55.900059,322.767029 
	C69.166298,322.755768 82.434372,322.616760 95.697693,322.807922 
	C99.905159,322.868530 101.218712,321.212341 101.079086,317.260712 
	C100.881691,311.674042 101.029076,306.075134 101.029076,300.014099 
	C108.561623,300.014099 115.648209,300.014099 122.920609,300.829468 
	C123.001228,302.219421 123.081841,303.609406 123.047157,305.931793 
	C123.047157,334.233948 123.047157,362.536072 123.047157,391.032349 
	C126.652420,391.032349 129.477905,390.908295 132.288422,391.060516 
	C136.853851,391.307770 141.409470,391.735931 146.046524,392.715393 
	C146.019119,393.135559 145.991714,393.555725 145.276825,394.475037 
	C145.510696,398.989899 145.744583,403.504761 146.053665,408.691345 
	C146.113220,409.137054 146.172775,409.582764 146.067627,410.871613 
	C145.514587,414.255371 147.792068,413.962341 150.003067,414.040344 
	C156.327530,414.263580 162.647705,414.609100 169.538025,415.531464 
	C184.815536,415.687622 200.097931,415.665039 215.368362,416.081268 
	C222.207748,416.267700 229.023178,417.333649 235.955582,418.922424 
	C235.928009,422.950409 235.900421,426.978363 235.211609,431.141235 
	C235.424881,432.425140 235.638138,433.709076 235.949448,435.926208 
	C235.922760,442.950562 235.896057,449.974915 235.207138,457.009521 
	C234.471695,457.624207 233.736252,458.238892 232.100647,458.989746 
	C229.066803,458.937653 226.032944,458.885590 222.789719,458.080078 
	C219.087280,456.785583 215.384247,455.482391 211.074600,458.961517 
	C205.716125,458.916016 200.357666,458.870514 194.812897,458.106598 
	C192.347977,456.510376 189.980804,455.838287 187.072937,458.968445 
	C175.048721,458.926788 163.024506,458.885162 150.888947,458.107422 
	C148.773468,454.347351 150.215302,443.402863 153.531448,440.887604 
	C154.892731,439.855072 157.076187,439.515930 158.871567,439.552460 
	C160.799072,439.591675 162.691391,440.693146 164.635788,440.838074 
	C165.662155,440.914581 166.766754,439.941467 167.836029,439.442261 
	C166.892929,438.630890 165.981583,437.165833 165.001389,437.118225 
	C160.033829,436.876892 155.039536,437.183441 150.072205,436.939606 
	C146.617310,436.770050 145.852325,438.279572 145.950668,441.363647 
	C146.139130,447.274475 146.034042,453.194611 146.500839,459.837280 
	C175.990112,459.886993 205.479385,459.942719 234.968658,459.947754 
	C235.624878,459.947845 236.281189,459.370636 236.981918,458.117981 
	C237.030472,443.459229 237.079025,428.800507 237.110916,413.978943 
	C237.110916,413.978943 236.951019,413.944000 237.895264,413.999969 
	C252.610870,413.958649 267.326477,413.917328 282.139526,414.299103 
	C282.139526,414.299103 282.298859,414.702972 282.110046,415.681061 
	C282.102753,430.149902 282.095459,444.618744 282.461090,459.862213 
	C311.747772,459.901276 341.034454,459.947784 370.321136,459.943420 
	C371.194336,459.943298 372.067505,459.410706 373.278839,458.342377 
	C373.519104,452.607910 373.970978,446.869720 373.869324,441.141327 
	C373.839264,439.446259 372.248749,437.778931 371.373322,436.098877 
	C370.582550,437.735352 369.687653,439.332672 369.050446,441.026855 
	C368.782593,441.739075 368.877716,442.713806 369.117920,443.470795 
	C370.792908,448.749054 370.258301,453.838806 367.071320,458.952271 
	C360.047333,458.914215 353.023376,458.876160 345.884857,458.207703 
	C344.923370,458.411224 343.961884,458.614777 342.256042,458.954346 
	C341.503845,458.908447 340.751617,458.862549 339.822937,458.118103 
	C337.678009,456.679657 335.592194,455.726166 333.084259,458.974884 
	C329.055969,458.927521 325.027710,458.880188 320.910614,458.274811 
	C320.594604,457.981110 320.278625,457.687408 319.962616,457.393707 
	C319.641937,457.869080 319.321228,458.344452 318.150696,458.952637 
	C316.433594,458.910217 314.716461,458.867798 312.856110,458.169800 
	C311.570953,458.389771 310.285828,458.609711 308.079132,458.980286 
	C303.386200,458.929504 298.693268,458.878693 293.810333,458.100647 
	C292.253143,457.410065 290.695953,456.719513 288.984741,455.960632 
	C288.984741,454.046997 289.613739,451.895264 288.857819,450.486786 
	C287.119476,447.247925 289.218048,441.565491 283.029236,440.103546 
	C283.064453,437.402527 283.099701,434.701508 283.879517,431.985443 
	C284.746582,431.585663 286.194092,431.366577 286.384186,430.755981 
	C287.425903,427.410645 288.774506,423.980347 288.836304,420.557922 
	C288.907074,416.639618 290.354767,415.894196 293.876007,415.931610 
	C308.996918,416.092285 324.120758,415.958862 339.242737,416.057770 
	C340.940948,416.068848 342.631378,416.883881 344.329987,417.307739 
	C347.389679,418.071289 350.329803,418.557648 351.931458,414.085022 
	C357.553131,414.070984 363.185944,413.834747 368.792877,414.115448 
	C373.038452,414.327911 374.275726,412.627136 374.103943,408.603363 
	C373.855621,402.786316 374.080933,396.949066 374.035461,390.997833 
	C374.035461,390.997833 374.075623,391.132111 374.999634,391.073029 
	C380.819519,391.069397 386.643341,391.175385 392.455933,390.967896 
	C393.593079,390.927277 394.686859,389.671875 395.902985,388.304230 
	C395.873260,387.852753 395.843567,387.401276 395.978088,386.036011 
	C395.915894,364.959015 395.853699,343.881989 395.914001,322.218079 
	C395.969971,321.821838 396.025940,321.425598 396.012512,321.012695 
	C396.012512,321.012695 396.014801,321.084076 396.562775,320.911560 
M344.170380,435.876160 
	C345.331085,437.561554 346.167816,440.250397 347.711761,440.748840 
	C352.844849,442.406128 358.093567,440.825928 360.743378,437.306274 
	C357.440948,437.086426 354.441010,436.886749 352.176697,436.736023 
	C351.043884,434.418610 350.241272,432.776703 349.438660,431.134827 
	C347.851807,432.324402 346.262085,433.510223 344.683868,434.711182 
	C344.565826,434.800995 344.530182,434.999146 344.170380,435.876160 
M78.019165,378.531952 
	C79.065926,375.118683 75.308739,370.123810 81.338577,367.996307 
	C79.983810,368.087860 78.629051,368.179443 76.837791,368.300537 
	C76.837791,376.073669 76.837791,383.450867 76.837791,390.828094 
	C77.230850,390.851929 77.623917,390.875793 78.016975,390.899628 
	C78.016975,387.100769 78.016975,383.301941 78.019165,378.531952 
z"/>
<path fill="#3E50B4" opacity="1.000000" stroke="none" 
	d="
M146.232330,410.028503 
	C146.172775,409.582764 146.113220,409.137054 146.318268,408.067444 
	C146.376663,402.954315 146.170486,398.465088 145.964310,393.975891 
	C145.991714,393.555725 146.019119,393.135559 146.013153,392.038239 
	C145.234924,390.875122 144.499435,389.986938 143.743652,389.969299 
	C139.262558,389.864929 134.770508,389.825867 130.294250,390.029968 
	C125.729767,390.238129 123.858688,388.690552 123.897545,383.724152 
	C124.102921,357.474640 123.969475,331.222504 123.959885,304.546722 
	C123.966240,280.872681 123.966240,257.623169 123.966240,233.960403 
	C129.387726,233.960403 133.890961,234.283798 138.326080,233.872589 
	C143.092651,233.430649 144.114380,235.305374 144.083603,239.773422 
	C143.904510,265.763031 143.982330,291.754944 144.135925,317.745117 
	C144.145889,319.430298 145.513245,321.107513 146.646118,322.777588 
	C148.372467,322.808502 149.701889,322.850281 151.305878,323.206055 
	C156.704193,323.314697 161.827972,323.109375 167.147247,322.848938 
	C167.342773,322.793793 167.748932,322.803101 168.166336,322.797241 
	C169.043488,321.676880 169.860947,320.574738 169.900024,319.445679 
	C170.055252,314.961182 170.090683,310.463776 169.926254,305.980103 
	C169.816574,302.989380 170.859009,301.730042 173.943695,301.926422 
	C177.090668,302.126801 180.259857,301.981628 183.419327,301.981628 
	C228.982254,301.981720 274.545471,302.055969 320.107635,301.870575 
	C324.978394,301.850769 326.617310,303.257843 326.116089,308.018677 
	C325.752533,311.472382 325.893127,315.005707 326.129730,318.481659 
	C326.211731,319.686707 327.258392,320.826050 327.935364,322.019562 
	C328.006317,322.043732 328.028015,322.192047 328.146851,322.380066 
	C328.492065,322.795166 328.764923,322.893219 329.095245,322.912903 
	C329.106232,322.963593 329.109161,322.857819 329.359833,323.188385 
	C336.051727,323.301208 342.492920,323.083435 349.187012,322.800354 
	C349.785706,322.700348 350.131531,322.665680 350.862488,322.698517 
	C351.487244,320.796204 351.983948,318.817596 351.917084,316.858215 
	C351.736420,311.564972 351.315887,306.279877 350.920532,300.708740 
	C350.797516,300.239075 350.744476,300.052246 350.717041,299.655212 
	C350.742615,299.445007 350.922455,299.061615 351.240417,298.779205 
	C351.704041,296.694702 351.969055,294.893036 351.975677,293.090454 
	C352.014648,282.463348 352.104980,271.834229 351.932983,261.209778 
	C351.871490,257.412811 353.040527,255.682419 357.051880,255.915970 
	C361.355225,256.166504 365.683014,255.996078 370.157318,256.247040 
	C370.839630,256.665680 371.364807,256.846680 371.912292,257.493958 
	C371.944336,278.249176 372.069855,298.539154 371.869812,318.825989 
	C371.827850,323.078888 373.205872,324.403412 377.277679,324.064301 
	C380.911346,323.761688 384.589752,323.992157 388.248413,323.995087 
	C394.642426,324.000214 395.013489,324.315460 395.025879,330.770233 
	C395.058502,347.733032 395.013336,364.695984 395.069794,381.658661 
	C395.075653,383.423187 395.554474,385.186127 395.813843,386.949799 
	C395.843567,387.401276 395.873260,387.852753 395.444611,388.668121 
	C390.546570,389.367889 386.101379,389.645081 381.669373,390.062225 
	C379.127075,390.301514 376.606171,390.767914 374.075623,391.132080 
	C374.075623,391.132111 374.035461,390.997833 373.746216,390.939087 
	C372.976318,392.451050 372.179230,394.000732 372.073212,395.596375 
	C371.726379,400.815063 373.589447,407.952911 370.882843,410.739014 
	C368.229980,413.469757 361.013885,411.650177 355.823120,412.092377 
	C353.844940,412.260925 351.929413,413.165466 349.519897,413.776947 
	C328.367310,413.769775 307.680176,413.720245 286.830811,413.495880 
	C286.114471,413.438721 285.560303,413.556366 284.690796,413.751831 
	C283.825317,414.129486 283.275177,414.429352 282.618774,414.722534 
	C282.512512,414.715851 282.298859,414.702972 282.298859,414.702972 
	C282.298859,414.702972 282.139526,414.299103 281.960083,413.879303 
	C281.561005,413.201996 281.288330,413.027283 280.664124,412.652893 
	C266.466003,412.268097 252.566437,412.154663 238.666611,412.103851 
	C238.109879,412.101837 237.550980,412.693268 236.979813,413.242004 
	C236.966553,413.475830 236.951019,413.944000 236.951019,413.944000 
	C236.951019,413.944000 237.110916,413.978943 236.831543,414.006195 
	C236.357498,414.042389 236.162796,414.051300 235.717804,413.936798 
	C235.297516,413.737701 235.127533,413.662018 234.859406,413.479858 
	C234.459167,413.244415 234.216522,413.324280 233.571594,413.704620 
	C211.739502,413.846100 190.369125,413.895905 168.802795,413.603760 
	C163.015091,412.841614 157.409027,412.550140 151.839386,411.930756 
	C149.923553,411.717712 148.098724,410.686127 146.232330,410.028503 
z"/>
<path fill="#FCBF09" opacity="1.000000" stroke="none" 
	d="
M123.158310,140.722702 
	C123.158310,140.722702 123.033173,140.630630 123.363770,140.492401 
	C124.086067,140.314072 124.477760,140.273956 125.204071,140.489426 
	C131.386993,140.751648 137.235306,140.758286 143.343414,140.789642 
	C143.773926,140.847992 143.944626,140.881653 144.179092,141.158432 
	C144.515625,141.579697 144.788391,141.757828 145.086716,142.262909 
	C145.136551,143.026367 145.160812,143.462891 145.130249,144.202423 
	C145.119888,144.705856 145.164322,144.906265 145.186218,145.565567 
	C145.173386,150.979553 145.183090,155.934662 145.184357,161.140533 
	C145.403290,161.619644 145.630692,161.848007 145.865463,162.099182 
	C145.872833,162.122009 145.897995,162.162842 146.017212,162.540695 
	C152.110321,162.976898 158.084198,163.035248 164.367218,163.099701 
	C165.088593,163.108353 165.500824,163.110931 166.107376,163.478058 
	C166.556732,169.418777 166.698441,175.003906 167.139648,180.565277 
	C167.263214,182.122925 168.268890,183.610580 169.002502,185.512299 
	C169.837112,186.245071 170.538208,186.900253 171.241318,186.902405 
	C191.847778,186.965652 212.454575,186.989716 233.060745,186.897385 
	C234.108948,186.892685 235.152267,185.796814 236.563049,185.045502 
	C237.263199,179.553696 237.960571,174.215485 237.815735,168.900238 
	C237.704590,164.821487 239.182251,163.861557 242.952011,163.896133 
	C247.960403,163.942078 252.974823,163.328857 257.994110,162.999527 
	C258.001556,163.000198 258.004211,162.988419 258.245392,162.929779 
	C258.797546,162.697754 258.983429,162.435654 259.091583,161.736755 
	C259.099274,160.923798 259.059662,160.458923 259.079529,159.531586 
	C259.190948,154.429642 259.242859,149.790192 259.633423,145.029953 
	C261.791626,143.619797 263.603577,141.219727 265.431824,141.207275 
	C293.914917,141.013275 322.400085,141.128082 350.918884,141.628174 
	C350.964325,176.283630 350.975250,210.482498 350.987701,244.681351 
	C350.988831,247.774796 350.999634,250.868225 351.077576,254.021240 
	C351.149200,254.080826 351.135071,254.266632 350.886169,254.266174 
	C350.318665,254.427292 350.117554,254.681793 349.736938,255.318298 
	C349.313782,257.253265 349.082581,258.898865 349.078461,260.545044 
	C349.050537,271.701660 349.051910,282.858429 349.087555,294.015015 
	C349.097137,297.012482 348.961334,298.809082 344.706543,298.403809 
	C337.393158,297.707245 329.972382,298.101990 322.596680,298.101044 
	C266.201050,298.093903 209.805435,298.103577 153.409805,298.102600 
	C147.022842,298.102478 147.018524,298.086823 147.018372,291.506592 
	C147.017960,273.189453 147.063583,254.872055 146.952454,236.555603 
	C146.942352,234.889267 145.935577,233.228958 145.241028,231.517929 
	C145.090424,231.470001 144.850540,231.264175 144.644394,230.898621 
	C138.919281,230.373047 133.379852,230.432190 127.893829,229.919586 
	C126.245911,229.765625 124.746796,228.019028 123.172852,226.671906 
	C123.173218,225.901733 123.180252,225.461700 123.420822,224.685318 
	C123.734108,202.825317 123.819748,181.301682 123.862839,159.777939 
	C123.864044,159.177704 123.409584,158.576553 123.154861,157.650543 
	C123.154083,156.891510 123.166031,156.457733 123.411026,155.693848 
	C123.491936,151.251923 123.339790,147.140121 123.173042,142.645325 
	C123.158394,141.749100 123.158356,141.235901 123.158310,140.722702 
M235.526093,231.350861 
	C235.944016,229.876495 236.762161,228.387894 236.710251,226.930267 
	C236.491211,220.781174 236.012802,214.641327 235.259140,207.922119 
	C234.169418,207.633911 233.080307,207.097092 231.989899,207.094498 
	C213.086411,207.049515 194.182648,207.045807 175.279465,207.138748 
	C174.178055,207.144165 173.081070,208.048126 171.265289,208.693161 
	C170.776779,208.684158 170.288284,208.675171 169.303101,208.275726 
	C168.560455,209.361771 167.183945,210.440628 167.171539,211.534943 
	C167.018829,225.011688 167.064468,238.490707 167.061325,251.969131 
	C167.060654,254.883331 168.246872,256.393066 171.388275,255.672531 
	C172.340866,255.454056 173.328430,255.243713 174.296417,255.258743 
	C186.415726,255.446884 198.535492,255.631760 210.652481,255.926575 
	C213.935425,256.006470 215.117844,254.519806 215.029922,251.409744 
	C214.926529,247.752060 215.014267,244.088974 215.018906,240.428238 
	C215.028366,232.959839 215.031296,233.087357 222.306763,232.916565 
	C226.466003,232.818939 230.613617,232.225922 235.526093,231.350861 
z"/>
<path fill="#FCBF0A" opacity="1.000000" stroke="none" 
	d="
M350.948639,94.405663 
	C334.862793,94.519859 318.776978,94.646004 302.691040,94.741493 
	C297.380341,94.773018 292.069153,94.725395 286.016235,94.428574 
	C284.164398,94.118225 283.054535,94.093254 281.510437,94.129120 
	C275.797699,94.330269 270.518951,94.581696 265.240723,94.571541 
	C261.766693,94.564857 259.248962,93.594559 259.714325,89.063324 
	C260.154449,84.777412 259.781494,80.411179 259.832062,76.081039 
	C259.870605,72.780441 258.396118,71.146973 255.012909,71.207848 
	C251.016525,71.279770 247.002823,71.007774 243.024170,71.283012 
	C238.608932,71.588463 236.476700,70.270149 236.894073,65.429977 
	C237.250473,61.297340 236.802048,57.101414 236.988632,52.946014 
	C237.128784,49.825157 235.812500,48.933064 232.871414,48.944332 
	C212.716721,49.021580 192.561417,49.026730 172.406830,48.938091 
	C169.072098,48.923420 168.007919,50.374969 168.093475,53.469696 
	C168.217712,57.963795 167.983551,62.470715 168.193176,66.958580 
	C168.349380,70.302956 166.934967,71.374832 163.777618,71.254570 
	C159.619614,71.096199 155.442795,71.385025 151.288803,71.181206 
	C146.853439,70.963593 144.867172,72.575447 145.085953,77.255035 
	C145.350021,82.903786 145.084457,88.577301 144.575989,94.205154 
	C137.156433,94.090393 130.209030,94.010567 123.234253,93.466339 
	C123.171288,78.578011 123.135666,64.154068 123.100044,49.730129 
	C128.455017,49.487522 133.809204,49.225170 139.165405,49.013432 
	C140.947662,48.942974 142.735062,49.002308 145.044296,49.002308 
	C145.044296,42.082027 145.044296,35.526279 145.523621,28.437361 
	C148.121460,27.626186 150.239426,27.111073 152.358551,27.106188 
	C178.970932,27.044840 205.583496,27.031387 232.195953,27.058407 
	C256.476593,27.083059 280.757172,27.172031 305.026093,27.686529 
	C305.010620,33.631416 305.201508,39.131927 304.934265,44.610085 
	C304.757538,48.233196 306.199127,49.104836 309.566101,49.062042 
	C321.877319,48.905575 334.193329,49.111462 346.503967,48.932480 
	C349.998077,48.881676 351.100677,49.970745 351.053802,53.473919 
	C350.871399,67.115860 350.960541,80.761436 350.948639,94.405663 
z"/>
<path fill="#FB9704" opacity="1.000000" stroke="none" 
	d="
M351.005920,253.961670 
	C350.999634,250.868225 350.988831,247.774796 350.987701,244.681351 
	C350.975250,210.482498 350.964325,176.283630 351.395050,141.553375 
	C357.626831,141.005569 363.417603,141.052460 369.206024,140.957382 
	C377.107941,140.827576 385.008057,140.589630 392.908966,140.398071 
	C393.340668,140.344986 393.772339,140.291916 394.557404,140.772995 
	C394.956970,143.798126 395.037903,146.289032 395.044037,148.780121 
	C395.103363,172.872131 395.150085,196.964172 395.116516,221.500122 
	C394.939606,224.666031 394.846619,227.388016 394.405457,230.319092 
	C388.616821,230.701981 383.170563,231.106262 377.737823,230.970551 
	C373.963196,230.876236 372.762451,232.304306 372.950653,235.917801 
	C373.183533,240.388535 372.885925,244.885269 373.062347,249.361115 
	C373.196686,252.769745 371.942902,254.139954 368.435730,254.015213 
	C362.632507,253.808823 356.816528,253.960724 351.005920,253.961670 
z"/>
<path fill="#FBBF0A" opacity="1.000000" stroke="none" 
	d="
M101.147537,232.176636 
	C107.425735,231.796127 113.703934,231.415619 120.502823,231.493195 
	C121.327423,233.066620 121.893082,234.181213 121.896309,235.297424 
	C121.953201,254.958435 121.939522,274.619629 121.946526,294.280792 
	C121.947739,297.695068 120.078888,298.988953 116.865784,298.951904 
	C112.534309,298.901947 108.194756,299.098694 103.871796,298.901672 
	C100.115639,298.730408 98.793655,300.375061 98.959793,303.958588 
	C99.129387,307.616547 98.631119,311.336121 99.095085,314.942535 
	C99.784462,320.301147 97.503761,321.356995 92.636925,321.191620 
	C82.652664,320.852386 72.635452,320.824646 62.655785,321.242096 
	C56.094322,321.516602 55.921928,321.799103 55.906898,315.246155 
	C55.903461,313.746582 55.952553,312.245300 55.898445,310.747681 
	C55.648033,303.816803 55.369751,296.886902 55.092712,289.498505 
	C55.204155,285.085693 55.324341,281.131042 55.444523,277.176392 
	C62.269413,277.117981 69.094307,277.059570 76.719040,276.738403 
	C77.688881,271.050232 78.068184,265.620453 77.957825,260.200684 
	C77.879738,256.366547 79.162148,254.914917 83.109917,254.970108 
	C88.152336,255.040604 93.203995,254.450546 98.251671,254.145172 
	C98.251671,254.145187 98.442619,254.021744 98.912697,253.962891 
	C99.607841,253.496368 99.832909,253.088699 100.057976,252.681046 
	C100.057976,252.681046 100.031075,252.447372 100.362892,251.997101 
	C100.845650,245.090088 100.996590,238.633362 101.147537,232.176636 
z"/>
<path fill="#FABE0D" opacity="1.000000" stroke="none" 
	d="
M422.212006,322.401489 
	C421.700287,322.450592 421.188538,322.499695 420.339294,322.207275 
	C419.935120,321.517365 419.737274,321.288940 419.408264,321.180481 
	C419.272705,315.742188 418.934509,310.298676 419.073456,304.867401 
	C419.164734,301.298859 418.178741,299.735443 414.340332,299.918762 
	C408.756256,300.185425 403.150024,299.987183 396.964355,299.987183 
	C396.964355,306.525269 396.964355,312.752319 396.693237,319.583496 
	C396.286346,320.486420 396.150574,320.785248 396.014801,321.084076 
	C396.014801,321.084076 396.012512,321.012695 395.722839,320.987396 
	C394.568512,321.421478 393.703857,321.880859 392.395142,322.440857 
	C386.702820,322.472321 381.454651,322.403229 376.117737,322.080444 
	C375.226898,321.157532 374.424835,320.488312 373.525757,319.374603 
	C373.486298,298.033905 373.543793,277.137695 373.960510,256.116577 
	C378.379303,255.701355 382.442169,255.451019 386.497345,255.108795 
	C390.029510,254.810669 393.552917,254.408829 397.543518,254.040131 
	C404.676208,254.018173 411.345551,254.008926 418.244019,254.010666 
	C418.473083,254.021637 418.927765,254.084457 418.942993,254.323975 
	C418.958252,254.563477 418.988678,255.042511 418.992432,255.507034 
	C418.996033,261.743805 419.090393,267.518311 418.954620,273.287354 
	C418.889496,276.055847 419.901306,277.099365 422.687958,277.037842 
	C428.787079,276.903137 434.891235,276.997406 441.260040,277.042786 
	C441.694122,277.154388 441.861481,277.221344 442.018311,277.738770 
	C442.007751,292.727875 442.007751,307.266510 442.007751,321.722076 
	C438.146820,321.965088 434.683350,322.183105 431.219910,322.401093 
	C429.711121,322.481018 428.202362,322.560974 426.024353,322.383850 
	C424.307404,322.218353 423.259705,322.309906 422.212006,322.401489 
z"/>
<path fill="#FA9604" opacity="1.000000" stroke="none" 
	d="
M351.400299,94.550232 
	C350.960541,80.761436 350.871399,67.115860 351.053802,53.473919 
	C351.100677,49.970745 349.998077,48.881676 346.503967,48.932480 
	C334.193329,49.111462 321.877319,48.905575 309.566101,49.062042 
	C306.199127,49.104836 304.757538,48.233196 304.934265,44.610085 
	C305.201508,39.131927 305.010620,33.631416 305.026489,27.627399 
	C305.038605,27.114397 305.009155,26.999859 305.476440,27.022566 
	C328.369934,27.062870 350.796112,27.080465 373.222290,27.098061 
	C373.471771,32.309917 373.746002,37.520763 373.957916,42.734146 
	C374.037018,44.679798 373.970703,46.631363 373.970703,49.051350 
	C381.192719,49.051350 387.947266,49.051350 395.228943,49.585842 
	C395.840271,63.427593 395.924438,76.734848 396.008606,90.042107 
	C395.917267,91.482803 395.825897,92.923508 395.713593,94.694794 
	C380.909668,94.694794 366.380829,94.694794 351.400299,94.550232 
z"/>
<path fill="#A39D8E" opacity="1.000000" stroke="none" 
	d="
M145.048141,94.240097 
	C145.084457,88.577301 145.350021,82.903786 145.085953,77.255035 
	C144.867172,72.575447 146.853439,70.963593 151.288803,71.181206 
	C155.442795,71.385025 159.619614,71.096199 163.777618,71.254570 
	C166.934967,71.374832 168.349380,70.302956 168.193176,66.958580 
	C167.983551,62.470715 168.217712,57.963795 168.093475,53.469696 
	C168.007919,50.374969 169.072098,48.923420 172.406830,48.938091 
	C192.561417,49.026730 212.716721,49.021580 232.871414,48.944332 
	C235.812500,48.933064 237.128784,49.825157 236.988632,52.946014 
	C236.802048,57.101414 237.250473,61.297340 236.894073,65.429977 
	C236.476700,70.270149 238.608932,71.588463 243.024170,71.283012 
	C247.002823,71.007774 251.016525,71.279770 255.012909,71.207848 
	C258.396118,71.146973 259.870605,72.780441 259.832062,76.081039 
	C259.781494,80.411179 260.154449,84.777412 259.714325,89.063324 
	C259.248962,93.594559 261.766693,94.564857 265.240723,94.571541 
	C270.518951,94.581696 275.797699,94.330269 281.542725,94.394279 
	C282.055115,94.771133 282.101013,94.943665 282.146881,95.116188 
	C282.146881,95.116188 282.102386,95.587502 281.617920,95.855499 
	C278.203400,96.294174 275.274994,96.505127 272.342896,96.625832 
	C268.180511,96.797180 264.015381,96.902100 259.651550,96.774902 
	C258.654205,95.830276 257.856781,95.146149 257.129089,94.093979 
	C257.450317,87.958839 257.842743,82.190536 257.793488,76.426010 
	C257.786530,75.610428 255.655121,74.167511 254.460419,74.116997 
	C248.659760,73.871796 242.843262,74.002098 236.930908,73.628868 
	C235.227890,72.737541 233.626343,72.216736 232.030823,71.371445 
	C232.674988,65.767067 233.396881,60.494244 233.843979,55.198219 
	C233.899109,54.544987 232.564056,53.256279 231.745010,53.136131 
	C227.995911,52.586147 224.203720,52.081913 220.422302,52.045204 
	C207.462540,51.919392 194.499649,51.900917 181.540558,52.057114 
	C177.818497,52.101974 174.105225,52.874798 169.985199,53.361416 
	C169.985199,59.794403 169.985199,65.747032 169.660339,71.914093 
	C168.954071,73.693939 168.280930,75.252296 168.242844,76.826012 
	C168.095291,82.922768 168.149948,89.024429 167.664459,95.001328 
	C160.052490,94.931625 152.905396,94.984856 145.596710,95.038055 
	C145.435104,95.038017 145.111923,95.033226 145.085938,94.835754 
	C145.059952,94.638275 145.048141,94.240097 145.048141,94.240097 
z"/>
<path fill="#F79606" opacity="1.000000" stroke="none" 
	d="
M431.648163,322.544037 
	C434.683350,322.183105 438.146820,321.965088 442.007751,321.722076 
	C442.007751,307.266510 442.007751,292.727875 442.322449,277.666473 
	C442.841919,277.107025 443.046692,277.070374 443.251465,277.033752 
	C443.251465,277.033752 443.679230,277.038879 444.197510,277.369568 
	C450.989166,277.782990 457.262512,277.865692 463.661926,278.403717 
	C463.891907,293.329071 463.995880,307.799042 464.034790,322.420715 
	C463.969757,322.572418 463.905853,322.896271 463.905853,322.896271 
	C453.296051,322.826508 442.686218,322.756744 431.648163,322.544037 
z"/>
<path fill="#9D9D9D" opacity="1.000000" stroke="none" 
	d="
M145.111923,95.033226 
	C145.111923,95.033226 145.435104,95.038017 145.633896,95.500015 
	C145.738388,109.975410 145.644104,123.988800 145.109421,138.003815 
	C137.500580,138.002274 130.332123,137.999130 123.163673,137.995987 
	C123.116356,124.583504 123.069031,111.171021 123.494949,97.313797 
	C127.679642,96.583603 131.393433,96.325119 135.101868,96.004707 
	C138.441605,95.716141 141.775467,95.359718 145.111923,95.033226 
z"/>
<path fill="#9D9D9D" opacity="1.000000" stroke="none" 
	d="
M259.851440,97.035400 
	C264.015381,96.902100 268.180511,96.797180 272.342896,96.625832 
	C275.274994,96.505127 278.203400,96.294174 281.536438,96.077736 
	C282.010376,109.712250 282.081360,123.392532 281.628357,137.536148 
	C279.070007,137.999039 277.035614,137.998611 274.993652,137.631516 
	C274.144867,136.165634 273.303650,135.066391 271.607025,132.849380 
	C271.284302,135.605957 271.143982,136.804504 270.541595,138.003632 
	C266.660156,137.985748 263.240845,137.967285 259.788910,137.485107 
	C259.788025,123.692719 259.819733,110.364059 259.851440,97.035400 
z"/>
<path fill="#FB9805" opacity="1.000000" stroke="none" 
	d="
M418.014923,253.999695 
	C411.345551,254.008926 404.676208,254.018173 397.519440,253.566406 
	C396.835663,246.414886 396.639252,239.724411 396.367493,232.771301 
	C396.223969,232.151535 396.155762,231.794388 396.424896,231.378204 
	C396.981750,231.253555 397.201233,231.187973 397.420746,231.122375 
	C397.420746,231.122375 397.498993,231.011871 397.905823,231.346100 
	C404.499939,231.803268 410.687164,231.926224 417.017975,232.252792 
	C417.379913,232.720505 417.653717,232.900177 417.988403,232.999969 
	C417.993896,233.004547 417.998291,233.018250 417.992096,233.485016 
	C417.995575,240.634415 418.005249,247.317062 418.014923,253.999695 
z"/>
<path fill="#5B5679" opacity="1.000000" stroke="none" 
	d="
M396.087555,231.437256 
	C396.155762,231.794388 396.223969,232.151535 396.246216,233.225708 
	C396.200287,240.525650 396.200287,247.108536 396.200287,254.104614 
	C389.101898,254.104614 382.959045,254.000900 376.826111,254.200836 
	C375.730164,254.236557 374.675171,255.529236 373.601257,256.241516 
	C373.543793,277.137695 373.486298,298.033905 373.395111,319.709656 
	C374.309784,321.104156 375.258118,321.719116 376.206451,322.334106 
	C381.454651,322.403229 386.702820,322.472321 392.741364,322.597565 
	C394.284973,322.704132 395.038208,322.754578 395.791473,322.804993 
	C395.853699,343.881989 395.915894,364.959015 395.895966,386.492920 
	C395.554474,385.186127 395.075653,383.423187 395.069794,381.658661 
	C395.013336,364.695984 395.058502,347.733032 395.025879,330.770233 
	C395.013489,324.315460 394.642426,324.000214 388.248413,323.995087 
	C384.589752,323.992157 380.911346,323.761688 377.277679,324.064301 
	C373.205872,324.403412 371.827850,323.078888 371.869812,318.825989 
	C372.069855,298.539154 371.944336,278.249176 371.784393,257.232178 
	C371.089508,256.339142 370.544830,256.174255 370.000153,256.009369 
	C365.683014,255.996078 361.355225,256.166504 357.051880,255.915970 
	C353.040527,255.682419 351.871490,257.412811 351.932983,261.209778 
	C352.104980,271.834229 352.014648,282.463348 351.975677,293.090454 
	C351.969055,294.893036 351.704041,296.694702 351.202850,298.304321 
	C350.853302,283.787689 350.859283,269.463501 350.975159,254.934265 
	C351.085083,254.729218 351.135071,254.266632 351.135071,254.266632 
	C351.135071,254.266632 351.149200,254.080826 351.077576,254.021240 
	C356.816528,253.960724 362.632507,253.808823 368.435730,254.015213 
	C371.942902,254.139954 373.196686,252.769745 373.062347,249.361115 
	C372.885925,244.885269 373.183533,240.388535 372.950653,235.917801 
	C372.762451,232.304306 373.963196,230.876236 377.737823,230.970551 
	C383.170563,231.106262 388.616821,230.701981 394.550720,230.606140 
	C395.391937,230.935150 395.739746,231.186203 396.087555,231.437256 
M375.004211,245.427124 
	C375.018066,252.049576 375.018066,252.049606 381.275482,252.055222 
	C394.604279,252.067200 394.531708,252.069275 394.098633,237.049667 
	C394.015076,234.151642 393.317780,232.637619 390.178711,232.968018 
	C388.867798,233.106018 387.531006,232.991608 386.206055,233.004105 
	C373.349152,233.125381 375.163391,231.274796 375.004211,245.427124 
z"/>
<path fill="#4E5387" opacity="1.000000" stroke="none" 
	d="
M144.850540,231.264175 
	C144.850540,231.264175 145.090424,231.470001 145.301819,231.929779 
	C145.568542,246.628006 145.588165,260.866760 145.692810,275.104858 
	C145.753571,283.372620 145.950897,291.639374 145.984894,300.372864 
	C146.005081,308.155548 146.127136,315.471985 146.249176,322.788422 
	C145.513245,321.107513 144.145889,319.430298 144.135925,317.745117 
	C143.982330,291.754944 143.904510,265.763031 144.083603,239.773422 
	C144.114380,235.305374 143.092651,233.430649 138.326080,233.872589 
	C133.890961,234.283798 129.387726,233.960403 123.966240,233.960403 
	C123.966240,257.623169 123.966240,280.872681 123.762436,304.555298 
	C123.558632,304.988434 123.162460,304.999359 123.162460,304.999359 
	C123.081841,303.609406 123.001228,302.219421 122.916031,299.958191 
	C122.989769,276.444489 123.068085,253.802048 123.133316,231.148102 
	C123.120239,231.136581 123.087936,231.129532 123.544800,231.209976 
	C130.951279,231.281662 137.900909,231.272919 144.850540,231.264175 
z"/>
<path fill="#D4B555" opacity="1.000000" stroke="none" 
	d="
M123.146393,231.159607 
	C123.068085,253.802048 122.989769,276.444489 122.823128,299.550537 
	C115.648209,300.014099 108.561623,300.014099 101.029076,300.014099 
	C101.029076,306.075134 100.881691,311.674042 101.079086,317.260712 
	C101.218712,321.212341 99.905159,322.868530 95.697693,322.807922 
	C82.434372,322.616760 69.166298,322.755768 55.231243,322.861755 
	C54.562428,322.956512 54.122204,322.878296 54.122204,322.878296 
	C54.122204,322.878296 54.014900,322.443085 54.360321,321.918823 
	C54.837646,310.915283 54.969551,300.435974 55.101456,289.956665 
	C55.369751,296.886902 55.648033,303.816803 55.898445,310.747681 
	C55.952553,312.245300 55.903461,313.746582 55.906898,315.246155 
	C55.921928,321.799103 56.094322,321.516602 62.655785,321.242096 
	C72.635452,320.824646 82.652664,320.852386 92.636925,321.191620 
	C97.503761,321.356995 99.784462,320.301147 99.095085,314.942535 
	C98.631119,311.336121 99.129387,307.616547 98.959793,303.958588 
	C98.793655,300.375061 100.115639,298.730408 103.871796,298.901672 
	C108.194756,299.098694 112.534309,298.901947 116.865784,298.951904 
	C120.078888,298.988953 121.947739,297.695068 121.946526,294.280792 
	C121.939522,274.619629 121.953201,254.958435 121.896309,235.297424 
	C121.893082,234.181213 121.327423,233.066620 120.917953,231.550797 
	C120.985260,231.097900 121.158127,231.045502 121.919937,231.033447 
	C122.721375,231.102402 122.933884,231.130997 123.146393,231.159607 
z"/>
<path fill="#000001" opacity="1.000000" stroke="none" 
	d="
M282.724976,414.729248 
	C283.275177,414.429352 283.825317,414.129486 285.016296,413.860046 
	C286.102448,413.817230 286.547760,413.743988 286.993042,413.670715 
	C307.680176,413.720245 328.367310,413.769775 349.766357,413.907715 
	C350.652100,414.061981 350.825897,414.127838 350.999664,414.193665 
	C350.329803,418.557648 347.389679,418.071289 344.329987,417.307739 
	C342.631378,416.883881 340.940948,416.068848 339.242737,416.057770 
	C324.120758,415.958862 308.996918,416.092285 293.876007,415.931610 
	C290.354767,415.894196 288.907074,416.639618 288.836304,420.557922 
	C288.774506,423.980347 287.425903,427.410645 286.384186,430.755981 
	C286.194092,431.366577 284.746582,431.585663 283.458313,431.527100 
	C282.933105,425.622253 282.829041,420.175720 282.724976,414.729248 
z"/>
<path fill="#EECE6A" opacity="1.000000" stroke="none" 
	d="
M305.038208,27.173527 
	C280.757172,27.172031 256.476593,27.083059 232.195953,27.058407 
	C205.583496,27.031387 178.970932,27.044840 152.358551,27.106188 
	C150.239426,27.111073 148.121460,27.626186 145.602829,27.978098 
	C145.458939,27.397924 145.594528,26.283030 145.994614,26.178270 
	C147.088120,25.891945 148.293106,26.005793 149.453934,26.005774 
	C200.989258,26.004902 252.524582,26.008854 304.528900,26.294884 
	C304.997894,26.577539 305.009155,26.999859 305.009155,26.999859 
	C305.009155,26.999859 305.038605,27.114397 305.038208,27.173527 
z"/>
<path fill="#000001" opacity="1.000000" stroke="none" 
	d="
M146.050766,459.110901 
	C146.034042,453.194611 146.139130,447.274475 145.950668,441.363647 
	C145.852325,438.279572 146.617310,436.770050 150.072205,436.939606 
	C155.039536,437.183441 160.033829,436.876892 165.001389,437.118225 
	C165.981583,437.165833 166.892929,438.630890 167.836029,439.442261 
	C166.766754,439.941467 165.662155,440.914581 164.635788,440.838074 
	C162.691391,440.693146 160.799072,439.591675 158.871567,439.552460 
	C157.076187,439.515930 154.892731,439.855072 153.531448,440.887604 
	C150.215302,443.402863 148.773468,454.347351 150.536804,458.547180 
	C148.806686,459.028229 147.428726,459.069580 146.050766,459.110901 
z"/>
<path fill="#A69F86" opacity="1.000000" stroke="none" 
	d="
M123.094910,138.408630 
	C130.332123,137.999130 137.500580,138.002274 145.229660,138.351685 
	C145.894714,139.175262 145.999115,139.652603 146.334045,140.424927 
	C147.042374,142.205231 147.858841,143.674011 147.932388,145.179077 
	C148.126968,149.161560 147.801056,153.175476 148.114166,157.142776 
	C148.216827,158.443726 149.639908,160.708160 150.469147,160.712708 
	C156.336899,160.744904 162.207245,160.303757 168.125610,160.356903 
	C168.244675,161.387390 168.314896,162.074570 167.972794,162.816315 
	C167.011322,162.951767 166.462204,163.032639 165.913071,163.113495 
	C165.500824,163.110931 165.088593,163.108353 163.898712,163.031494 
	C157.380051,162.692398 151.639023,162.427628 145.897995,162.162842 
	C145.897995,162.162842 145.872833,162.122009 145.847748,161.858093 
	C145.704636,161.277176 145.494675,161.042374 145.192795,160.889771 
	C145.183090,155.934662 145.173386,150.979553 145.337448,145.442352 
	C145.402496,144.539963 145.293777,144.219696 145.185059,143.899414 
	C145.160812,143.462891 145.136551,143.026367 145.009399,142.028336 
	C144.723969,141.166473 144.460236,140.982635 144.115311,140.915298 
	C143.944626,140.881653 143.773926,140.847992 143.012650,140.537994 
	C136.571213,140.252380 130.720337,140.243118 124.869461,140.233856 
	C124.477760,140.273956 124.086067,140.314072 123.406250,140.427368 
	C123.087471,139.940811 123.056808,139.381058 123.094910,138.408630 
z"/>
<path fill="#D4B555" opacity="1.000000" stroke="none" 
	d="
M392.455597,140.300323 
	C385.008057,140.589630 377.107941,140.827576 369.206024,140.957382 
	C363.417603,141.052460 357.626831,141.005569 351.360962,141.096771 
	C322.400085,141.128082 293.914917,141.013275 265.431824,141.207275 
	C263.603577,141.219727 261.791626,143.619797 259.513672,144.645844 
	C258.974091,143.586609 258.892944,142.790726 258.866638,141.751450 
	C258.921509,141.508057 258.921265,141.009064 258.977478,140.783203 
	C259.033661,140.557343 259.147217,140.105927 259.604858,140.061737 
	C267.391571,139.910980 274.720581,139.804413 282.049622,139.697861 
	C284.025116,139.831619 286.000397,140.078964 287.976105,140.082260 
	C322.651459,140.140091 357.326843,140.168106 392.455597,140.300323 
z"/>
<path fill="#000001" opacity="1.000000" stroke="none" 
	d="
M234.957550,413.586365 
	C235.127533,413.662018 235.297516,413.737701 235.716766,414.330627 
	C235.927185,415.898743 235.888336,416.949615 235.849472,418.000488 
	C229.023178,417.333649 222.207748,416.267700 215.368362,416.081268 
	C200.097931,415.665039 184.815536,415.687622 169.276947,414.979309 
	C169.015854,414.427155 168.998734,413.945740 168.998734,413.945740 
	C190.369125,413.895905 211.739502,413.846100 233.805054,413.780060 
	C234.500214,413.763855 234.957550,413.586365 234.957550,413.586365 
z"/>
<path fill="#4A569C" opacity="1.000000" stroke="none" 
	d="
M123.104813,305.465576 
	C123.162460,304.999359 123.558632,304.988434 123.756073,304.979858 
	C123.969475,331.222504 124.102921,357.474640 123.897545,383.724152 
	C123.858688,388.690552 125.729767,390.238129 130.294250,390.029968 
	C134.770508,389.825867 139.262558,389.864929 143.743652,389.969299 
	C144.499435,389.986938 145.234924,390.875122 145.974518,391.724396 
	C141.409470,391.735931 136.853851,391.307770 132.288422,391.060516 
	C129.477905,390.908295 126.652420,391.032349 123.047157,391.032349 
	C123.047157,362.536072 123.047157,334.233948 123.104813,305.465576 
z"/>
<path fill="#000001" opacity="1.000000" stroke="none" 
	d="
M367.999756,458.816284 
	C370.258301,453.838806 370.792908,448.749054 369.117920,443.470795 
	C368.877716,442.713806 368.782593,441.739075 369.050446,441.026855 
	C369.687653,439.332672 370.582550,437.735352 371.373291,436.098877 
	C372.248749,437.778931 373.839264,439.446259 373.869324,441.141327 
	C373.970978,446.869720 373.519104,452.607910 372.698792,458.692047 
	C370.745728,458.966553 369.372742,458.891418 367.999756,458.816284 
z"/>
<path fill="#000001" opacity="1.000000" stroke="none" 
	d="
M283.126923,440.999573 
	C289.218048,441.565491 287.119476,447.247925 288.857819,450.486786 
	C289.613739,451.895264 288.984741,454.046997 288.984741,455.960632 
	C290.695953,456.719513 292.253143,457.410065 293.453552,458.533783 
	C289.760834,458.932678 286.424896,458.898468 283.053101,458.406616 
	C283.053802,452.299164 283.090363,446.649384 283.126923,440.999573 
z"/>
<path fill="#D4B555" opacity="1.000000" stroke="none" 
	d="
M395.200439,221.056213 
	C395.150085,196.964172 395.103363,172.872131 395.044037,148.780121 
	C395.037903,146.289032 394.956970,143.798126 394.873169,140.868286 
	C395.217651,141.518570 395.888336,142.595169 395.936371,143.698853 
	C396.344086,153.066467 396.682434,162.437790 396.946472,171.810654 
	C397.062897,175.943680 396.959473,180.082886 396.624268,184.969040 
	C396.228729,195.111404 396.221039,204.504974 396.061981,213.895981 
	C396.021484,216.286896 395.500610,218.669693 395.200439,221.056213 
z"/>
<path fill="#000001" opacity="1.000000" stroke="none" 
	d="
M344.313293,435.511536 
	C344.530182,434.999146 344.565826,434.800995 344.683868,434.711182 
	C346.262085,433.510223 347.851807,432.324402 349.438660,431.134827 
	C350.241272,432.776703 351.043884,434.418610 352.176697,436.736023 
	C354.441010,436.886749 357.440948,437.086426 360.743378,437.306274 
	C358.093567,440.825928 352.844849,442.406128 347.711761,440.748840 
	C346.167816,440.250397 345.331085,437.561554 344.313293,435.511536 
z"/>
<path fill="#9D9D9D" opacity="1.000000" stroke="none" 
	d="
M146.275803,459.474091 
	C147.428726,459.069580 148.806686,459.028229 150.592468,458.915222 
	C163.024506,458.885162 175.048721,458.926788 187.970215,458.966858 
	C190.911377,458.918518 192.955292,458.871765 194.999191,458.825012 
	C200.357666,458.870514 205.716125,458.916016 211.991272,458.961456 
	C216.271667,458.918762 219.635376,458.876129 222.999100,458.833496 
	C226.032944,458.885590 229.066803,458.937653 232.908600,458.998383 
	C234.443390,458.949860 235.170258,458.892670 236.159058,458.883789 
	C236.593140,458.975647 236.765289,459.019165 236.937454,459.062683 
	C236.281189,459.370636 235.624878,459.947845 234.968658,459.947754 
	C205.479385,459.942719 175.990112,459.886993 146.275803,459.474091 
z"/>
<path fill="#9E9E9E" opacity="1.000000" stroke="none" 
	d="
M283.088989,458.864227 
	C286.424896,458.898468 289.760834,458.932678 293.548523,458.897400 
	C298.693268,458.878693 303.386200,458.929504 308.936646,458.971497 
	C310.862549,458.916901 311.930969,458.871124 312.999359,458.825378 
	C314.716461,458.867798 316.433594,458.910217 318.906128,458.953735 
	C320.107513,458.914185 320.553467,458.873505 320.999420,458.832825 
	C325.027710,458.880188 329.055969,458.927521 333.966766,458.970978 
	C336.565979,458.916901 338.282715,458.866760 339.999420,458.816620 
	C340.751617,458.862549 341.503845,458.908447 342.999817,458.954956 
	C344.495544,458.916412 345.247467,458.877258 345.999390,458.838135 
	C353.023376,458.876160 360.047333,458.914215 367.535522,458.884277 
	C369.372742,458.891418 370.745728,458.966553 372.529724,459.084045 
	C372.067505,459.410706 371.194336,459.943298 370.321136,459.943420 
	C341.034454,459.947784 311.747772,459.901276 282.525208,459.420715 
	C282.755890,458.940857 282.922455,458.902527 283.088989,458.864227 
z"/>
<path fill="#FDECAD" opacity="1.000000" stroke="none" 
	d="
M123.133316,231.148102 
	C122.933884,231.130997 122.721375,231.102402 122.190788,231.026031 
	C121.914696,203.353500 121.948906,175.728729 122.012840,148.104034 
	C122.018196,145.791626 122.223595,143.479691 122.747177,140.945114 
	C123.158356,141.235901 123.158394,141.749100 123.101639,143.099213 
	C123.089226,147.965424 123.133598,151.994690 123.177971,156.023972 
	C123.166031,156.457733 123.154083,156.891510 123.080116,158.115295 
	C123.074493,180.944092 123.130890,202.982880 123.187286,225.021652 
	C123.180252,225.461700 123.173218,225.901733 123.085587,227.076050 
	C123.032631,228.916718 123.060280,230.023117 123.087936,231.129532 
	C123.087936,231.129532 123.120239,231.136581 123.133316,231.148102 
z"/>
<path fill="#3B458A" opacity="1.000000" stroke="none" 
	d="
M351.465576,414.139343 
	C350.825897,414.127838 350.652100,414.061981 350.231812,413.865356 
	C351.929413,413.165466 353.844940,412.260925 355.823120,412.092377 
	C361.013885,411.650177 368.229980,413.469757 370.882843,410.739014 
	C373.589447,407.952911 371.726379,400.815063 372.073212,395.596375 
	C372.179230,394.000732 372.976318,392.451050 373.780579,391.000366 
	C374.080933,396.949066 373.855621,402.786316 374.103943,408.603363 
	C374.275726,412.627136 373.038452,414.327911 368.792877,414.115448 
	C363.185944,413.834747 357.553131,414.070984 351.465576,414.139343 
z"/>
<path fill="#868686" opacity="1.000000" stroke="none" 
	d="
M464.771698,322.914917 
	C464.771698,345.541656 464.771698,368.168427 464.771698,390.795166 
	C464.515106,390.791992 464.258545,390.788818 464.001953,390.785645 
	C464.001953,368.473938 464.001953,346.162201 463.953918,323.373383 
	C463.905853,322.896271 463.969757,322.572418 464.177368,322.611023 
	C464.384949,322.649658 464.771698,322.914917 464.771698,322.914917 
z"/>
<path fill="#E3B45F" opacity="1.000000" stroke="none" 
	d="
M305.476440,27.022566 
	C305.009155,26.999859 304.997894,26.577539 304.991791,26.366394 
	C327.576202,26.206118 350.166718,26.256989 372.989746,26.702961 
	C350.796112,27.080465 328.369934,27.062870 305.476440,27.022566 
z"/>
<path fill="#868686" opacity="1.000000" stroke="none" 
	d="
M54.073082,323.355835 
	C54.122204,322.878296 54.562428,322.956512 54.780766,323.003723 
	C54.999104,345.480255 54.999104,367.909576 54.999104,390.338898 
	C54.674057,390.339478 54.349010,390.340027 54.023964,390.340576 
	C54.023964,368.171509 54.023964,346.002411 54.073082,323.355835 
z"/>
<path fill="#FFE1A0" opacity="1.000000" stroke="none" 
	d="
M395.116516,221.500122 
	C395.500610,218.669693 396.021484,216.286896 396.061981,213.895981 
	C396.221039,204.504974 396.228729,195.111404 396.567078,185.422180 
	C396.911896,200.156738 396.982239,215.187912 397.236694,230.670731 
	C397.201233,231.187973 396.981750,231.253555 396.424896,231.378204 
	C395.739746,231.186203 395.391937,230.935150 394.898895,230.397064 
	C394.846619,227.388016 394.939606,224.666031 395.116516,221.500122 
z"/>
<path fill="#404B9C" opacity="1.000000" stroke="none" 
	d="
M168.802795,413.603760 
	C168.998734,413.945740 169.015854,414.427155 168.992706,414.666809 
	C162.647705,414.609100 156.327530,414.263580 150.003067,414.040344 
	C147.792068,413.962341 145.514587,414.255371 146.149963,410.450073 
	C148.098724,410.686127 149.923553,411.717712 151.839386,411.930756 
	C157.409027,412.550140 163.015091,412.841614 168.802795,413.603760 
z"/>
<path fill="#E3B45F" opacity="1.000000" stroke="none" 
	d="
M443.049927,276.643616 
	C443.046692,277.070374 442.841919,277.107025 442.333008,277.216003 
	C441.861481,277.221344 441.694122,277.154388 441.241638,276.574738 
	C440.949768,270.767273 440.775513,265.465607 440.992279,260.179993 
	C441.149414,256.350250 439.835297,254.772186 435.862213,254.954544 
	C430.248169,255.212234 424.614166,255.034256 418.988678,255.042511 
	C418.988678,255.042511 418.958252,254.563477 418.976318,254.014908 
	C419.015198,253.260605 419.036011,253.054855 419.056824,252.849121 
	C422.421051,253.233215 425.776855,253.796692 429.151672,253.955399 
	C433.261200,254.148666 437.386719,254.001343 441.549652,254.001343 
	C441.994629,261.625519 442.421509,268.939514 443.049927,276.643616 
z"/>
<path fill="#EECE6A" opacity="1.000000" stroke="none" 
	d="
M464.865234,322.459778 
	C464.771698,322.914917 464.384949,322.649658 464.242401,322.459351 
	C463.995880,307.799042 463.891907,293.329071 463.733154,278.230011 
	C463.678406,277.600952 463.609131,277.232208 463.609131,277.232208 
	C464.075592,278.360931 464.941345,279.487457 464.947662,280.618774 
	C465.024597,294.413666 464.975342,308.209259 464.865234,322.459778 
z"/>
<path fill="#A69F86" opacity="1.000000" stroke="none" 
	d="
M145.085938,94.835754 
	C141.775467,95.359718 138.441605,95.716141 135.101868,96.004707 
	C131.393433,96.325119 127.679642,96.583603 123.564819,96.930351 
	C123.108444,96.574982 123.055450,96.158318 123.063126,95.130127 
	C123.169746,94.322639 123.215675,94.126686 123.261612,93.930733 
	C130.209030,94.010567 137.156433,94.090393 144.575989,94.205154 
	C145.048141,94.240097 145.059952,94.638275 145.085938,94.835754 
z"/>
<path fill="#A39D8E" opacity="1.000000" stroke="none" 
	d="
M282.105530,139.414459 
	C274.720581,139.804413 267.391571,139.910980 259.572876,140.038177 
	C259.083252,140.058823 259.012756,140.022247 259.102600,139.753815 
	C259.402161,138.973206 259.611847,138.461014 259.821503,137.948822 
	C263.240845,137.967285 266.660156,137.985748 270.941223,138.003098 
	C272.869019,138.000732 273.935120,137.999451 275.001221,137.998169 
	C277.035614,137.998611 279.070007,137.999039 281.540070,137.997498 
	C282.037628,138.374039 282.099548,138.752533 282.105530,139.414459 
z"/>
<path fill="#F5DA87" opacity="1.000000" stroke="none" 
	d="
M55.092712,289.498505 
	C54.969551,300.435974 54.837646,310.915283 54.424198,321.703979 
	C54.255428,307.050873 54.368206,292.088318 54.962753,277.151093 
	C55.324341,281.131042 55.204155,285.085693 55.092712,289.498505 
z"/>
<path fill="#727CB0" opacity="1.000000" stroke="none" 
	d="
M237.423141,413.971985 
	C236.951019,413.944000 236.966553,413.475830 237.449188,413.239502 
	C252.275436,412.980591 266.619049,412.957977 280.962646,412.935364 
	C281.288330,413.027283 281.561005,413.201996 281.911346,413.667786 
	C267.326477,413.917328 252.610870,413.958649 237.423141,413.971985 
z"/>
<path fill="#444445" opacity="1.000000" stroke="none" 
	d="
M236.959686,458.590332 
	C236.765289,459.019165 236.593140,458.975647 236.188660,458.577698 
	C235.927338,457.815277 235.898346,457.407257 235.869354,456.999268 
	C235.896057,449.974915 235.922760,442.950562 235.951828,435.062988 
	C235.927094,433.135284 235.899963,432.070801 235.872833,431.006348 
	C235.900421,426.978363 235.928009,422.950409 235.902527,418.461456 
	C235.888336,416.949615 235.927185,415.898743 235.967072,414.454041 
	C236.162796,414.051300 236.357498,414.042389 236.839874,414.087585 
	C237.079025,428.800507 237.030472,443.459229 236.959686,458.590332 
z"/>
<path fill="#FDECAD" opacity="1.000000" stroke="none" 
	d="
M123.234253,93.466339 
	C123.215675,94.126686 123.169746,94.322639 123.059372,94.813583 
	C122.660782,94.617256 122.033279,94.124863 122.035103,93.634811 
	C122.088936,79.159775 122.205292,64.684967 122.705872,49.970131 
	C123.135666,64.154068 123.171288,78.578011 123.234253,93.466339 
z"/>
<path fill="#EDCA5D" opacity="1.000000" stroke="none" 
	d="
M97.760696,254.082184 
	C93.203995,254.450546 88.152336,255.040604 83.109917,254.970108 
	C79.162148,254.914917 77.879738,256.366547 77.957825,260.200684 
	C78.068184,265.620453 77.688881,271.050232 77.177162,276.729187 
	C76.835434,269.542389 76.835434,262.102142 76.835434,254.019196 
	C83.837227,254.019196 90.553474,254.019196 97.760696,254.082184 
z"/>
<path fill="#444445" opacity="1.000000" stroke="none" 
	d="
M283.053101,458.406616 
	C282.922455,458.902527 282.755890,458.940857 282.338745,459.033386 
	C282.095459,444.618744 282.102753,430.149902 282.204468,415.192017 
	C282.298859,414.702972 282.512512,414.715851 282.618744,414.722534 
	C282.829041,420.175720 282.933105,425.622253 283.086029,431.534607 
	C283.099701,434.701508 283.064453,437.402527 283.078064,440.551575 
	C283.090363,446.649384 283.053802,452.299164 283.053101,458.406616 
z"/>
<path fill="#FFE1A0" opacity="1.000000" stroke="none" 
	d="
M396.391785,89.829254 
	C395.924438,76.734848 395.840271,63.427593 395.661713,49.676998 
	C396.044403,49.836212 396.937103,50.438560 396.937378,51.041336 
	C396.943512,63.899673 396.849487,76.758041 396.391785,89.829254 
z"/>
<path fill="#EDCA5D" opacity="1.000000" stroke="none" 
	d="
M100.727539,232.210602 
	C100.996590,238.633362 100.845650,245.090088 100.426102,251.897919 
	C100.207512,245.580856 100.257523,238.912704 100.727539,232.210602 
z"/>
<path fill="#404B9C" opacity="1.000000" stroke="none" 
	d="
M145.620575,394.225464 
	C146.170486,398.465088 146.376663,402.954315 146.280670,407.731567 
	C145.744583,403.504761 145.510696,398.989899 145.620575,394.225464 
z"/>
<path fill="#A3A3A3" opacity="1.000000" stroke="none" 
	d="
M78.018066,379.017517 
	C78.016975,383.301941 78.016975,387.100769 78.016975,390.899628 
	C77.623917,390.875793 77.230850,390.851929 76.837791,390.828094 
	C76.837791,383.450867 76.837791,376.073669 76.837791,368.300537 
	C78.629051,368.179443 79.983810,368.087860 81.338577,367.996307 
	C75.308739,370.123810 79.065926,375.118683 78.018066,379.017517 
z"/>
<path fill="#5B5679" opacity="1.000000" stroke="none" 
	d="
M374.537628,391.102539 
	C376.606171,390.767914 379.127075,390.301514 381.669373,390.062225 
	C386.101379,389.645081 390.546570,389.367889 395.393433,389.004395 
	C394.686859,389.671875 393.593079,390.927277 392.455933,390.967896 
	C386.643341,391.175385 380.819519,391.069397 374.537628,391.102539 
z"/>
<path fill="#E3B45F" opacity="1.000000" stroke="none" 
	d="
M416.874420,232.049194 
	C410.687164,231.926224 404.499939,231.803268 397.960175,231.386475 
	C403.810852,231.051529 410.014496,230.963058 416.216736,231.021683 
	C417.123718,231.030243 418.024139,231.739456 418.661011,232.560379 
	C418.394409,232.996277 417.998291,233.018250 417.998291,233.018250 
	C417.998291,233.018250 417.993896,233.004547 417.874146,232.771423 
	C417.461060,232.375259 417.167755,232.212219 416.874420,232.049194 
z"/>
<path fill="#000001" opacity="1.000000" stroke="none" 
	d="
M222.894409,458.456787 
	C219.635376,458.876129 216.271667,458.918762 212.454346,458.891968 
	C215.384247,455.482391 219.087280,456.785583 222.894409,458.456787 
z"/>
<path fill="#D4B555" opacity="1.000000" stroke="none" 
	d="
M417.992096,233.485016 
	C417.998291,233.018250 418.394409,232.996277 418.592773,232.994049 
	C418.860352,239.305710 418.929596,245.619614 419.027832,252.391327 
	C419.036011,253.054855 419.015198,253.260605 418.961090,253.775391 
	C418.927765,254.084457 418.473083,254.021637 418.244019,254.010666 
	C418.005249,247.317062 417.995575,240.634415 417.992096,233.485016 
z"/>
<path fill="#FABE0D" opacity="1.000000" stroke="none" 
	d="
M463.186401,277.151367 
	C463.609131,277.232208 463.678406,277.600952 463.607147,277.774658 
	C457.262512,277.865692 450.989166,277.782990 444.395020,277.451721 
	C450.304047,277.158966 456.533844,277.114746 463.186401,277.151367 
z"/>
<path fill="#000001" opacity="1.000000" stroke="none" 
	d="
M194.906036,458.465820 
	C192.955292,458.871765 190.911377,458.918518 188.434143,458.896179 
	C189.980804,455.838287 192.347977,456.510376 194.906036,458.465820 
z"/>
<path fill="#000001" opacity="1.000000" stroke="none" 
	d="
M339.911194,458.467346 
	C338.282715,458.866760 336.565979,458.916901 334.424988,458.897461 
	C335.592194,455.726166 337.678009,456.679657 339.911194,458.467346 
z"/>
<path fill="#000001" opacity="1.000000" stroke="none" 
	d="
M312.927734,458.497559 
	C311.930969,458.871124 310.862549,458.916901 309.397400,458.896179 
	C310.285828,458.609711 311.570953,458.389771 312.927734,458.497559 
z"/>
<path fill="#000001" opacity="1.000000" stroke="none" 
	d="
M235.542221,431.073792 
	C235.899963,432.070801 235.927094,433.135284 235.902802,434.596375 
	C235.638138,433.709076 235.424881,432.425140 235.542221,431.073792 
z"/>
<path fill="#E3B45F" opacity="1.000000" stroke="none" 
	d="
M395.852722,322.511536 
	C395.038208,322.754578 394.284973,322.704132 393.185486,322.496948 
	C393.703857,321.880859 394.568512,321.421478 395.757507,320.995728 
	C396.025940,321.425598 395.969971,321.821838 395.852722,322.511536 
z"/>
<path fill="#000001" opacity="1.000000" stroke="none" 
	d="
M345.942139,458.522919 
	C345.247467,458.877258 344.495544,458.916412 343.372009,458.886932 
	C343.961884,458.614777 344.923370,458.411224 345.942139,458.522919 
z"/>
<path fill="#000001" opacity="1.000000" stroke="none" 
	d="
M235.538239,457.004395 
	C235.898346,457.407257 235.927338,457.815277 235.926727,458.529358 
	C235.170258,458.892670 234.443390,458.949860 233.358673,458.930298 
	C233.736252,458.238892 234.471695,457.624207 235.538239,457.004395 
z"/>
<path fill="#FA9604" opacity="1.000000" stroke="none" 
	d="
M282.511078,95.025635 
	C282.101013,94.943665 282.055115,94.771133 281.976990,94.333443 
	C283.054535,94.093254 284.164398,94.118225 285.547913,94.321671 
	C284.839478,94.645119 283.857361,94.790092 282.511078,95.025635 
z"/>
<path fill="#F79606" opacity="1.000000" stroke="none" 
	d="
M422.553772,322.544464 
	C423.259705,322.309906 424.307404,322.218353 425.582520,322.272003 
	C424.838440,322.507294 423.866974,322.597382 422.553772,322.544464 
z"/>
<path fill="#000001" opacity="1.000000" stroke="none" 
	d="
M320.955017,458.553833 
	C320.553467,458.873505 320.107513,458.914185 319.331055,458.887329 
	C319.321228,458.344452 319.641937,457.869080 319.962616,457.393707 
	C320.278625,457.687408 320.594604,457.981110 320.955017,458.553833 
z"/>
<path fill="#F79606" opacity="1.000000" stroke="none" 
	d="
M419.369507,321.410553 
	C419.737274,321.288940 419.935120,321.517365 419.993103,322.026398 
	C419.766479,322.004944 419.548615,321.822784 419.369507,321.410553 
z"/>
<path fill="#E3B45F" opacity="1.000000" stroke="none" 
	d="
M396.288788,320.997803 
	C396.150574,320.785248 396.286346,320.486420 396.629181,320.041412 
	C396.745117,320.234009 396.653931,320.572784 396.288788,320.997803 
z"/>
<path fill="#EDCA5D" opacity="1.000000" stroke="none" 
	d="
M99.758835,252.834106 
	C99.832909,253.088699 99.607841,253.496368 99.025101,253.979919 
	C98.931511,253.699600 99.195610,253.343384 99.758835,252.834106 
z"/>
<path fill="#D4B555" opacity="1.000000" stroke="none" 
	d="
M146.086761,299.906586 
	C145.950897,291.639374 145.753571,283.372620 145.692810,275.104858 
	C145.588165,260.866760 145.568542,246.628006 145.452423,231.977692 
	C145.935577,233.228958 146.942352,234.889267 146.952454,236.555603 
	C147.063583,254.872055 147.017960,273.189453 147.018372,291.506592 
	C147.018524,298.086823 147.022842,298.102478 153.409805,298.102600 
	C209.805435,298.103577 266.201050,298.093903 322.596680,298.101044 
	C329.972382,298.101990 337.393158,297.707245 344.706543,298.403809 
	C348.961334,298.809082 349.097137,297.012482 349.087555,294.015015 
	C349.051910,282.858429 349.050537,271.701660 349.078461,260.545044 
	C349.082581,258.898865 349.313782,257.253265 349.945679,255.338531 
	C350.451355,255.069672 350.865265,255.139328 350.865265,255.139328 
	C350.859283,269.463501 350.853302,283.787689 350.884888,298.586731 
	C350.922455,299.061615 350.742615,299.445007 350.279053,299.669739 
	C342.415253,299.993622 335.015045,300.092834 327.194885,300.108215 
	C275.348602,300.005127 223.922256,299.983887 172.495926,299.979279 
	C171.340408,299.979156 170.184860,300.167755 168.569885,300.158142 
	C160.769211,300.000824 153.427979,299.953705 146.086761,299.906586 
z"/>
<path fill="#04030A" opacity="1.000000" stroke="none" 
	d="
M327.614838,300.192047 
	C335.015045,300.092834 342.415253,299.993622 350.253448,299.879944 
	C350.744476,300.052246 350.797516,300.239075 350.835114,301.172089 
	C350.705536,308.822510 350.591461,315.726776 350.477386,322.631012 
	C350.131531,322.665680 349.785706,322.700348 348.727966,322.749084 
	C341.713806,322.794708 335.411469,322.826294 329.109161,322.857849 
	C329.109161,322.857819 329.106232,322.963593 328.970154,322.732544 
	C328.603577,322.298981 328.334869,322.195831 328.028015,322.192047 
	C328.028015,322.192047 328.006317,322.043732 327.975647,321.554504 
	C327.834961,314.107513 327.724915,307.149780 327.614838,300.192047 
z"/>
<path fill="#030208" opacity="1.000000" stroke="none" 
	d="
M145.984894,300.372864 
	C153.427979,299.953705 160.769211,300.000824 168.368668,300.504883 
	C168.334244,308.242249 168.041580,315.522675 167.748932,322.803101 
	C167.748932,322.803101 167.342773,322.793793 166.689880,322.779297 
	C161.035080,322.807251 156.033203,322.849670 151.031311,322.892090 
	C149.701889,322.850281 148.372467,322.808502 146.646118,322.777588 
	C146.127136,315.471985 146.005081,308.155548 145.984894,300.372864 
z"/>
<path fill="#4E5387" opacity="1.000000" stroke="none" 
	d="
M168.166336,322.797241 
	C168.041580,315.522675 168.334244,308.242249 168.828125,300.615082 
	C170.184860,300.167755 171.340408,299.979156 172.495926,299.979279 
	C223.922256,299.983887 275.348602,300.005127 327.194885,300.108215 
	C327.724915,307.149780 327.834961,314.107513 327.904724,321.530334 
	C327.258392,320.826050 326.211731,319.686707 326.129730,318.481659 
	C325.893127,315.005707 325.752533,311.472382 326.116089,308.018677 
	C326.617310,303.257843 324.978394,301.850769 320.107635,301.870575 
	C274.545471,302.055969 228.982254,301.981720 183.419327,301.981628 
	C180.259857,301.981628 177.090668,302.126801 173.943695,301.926422 
	C170.859009,301.730042 169.816574,302.989380 169.926254,305.980103 
	C170.090683,310.463776 170.055252,314.961182 169.900024,319.445679 
	C169.860947,320.574738 169.043488,321.676880 168.166336,322.797241 
z"/>
<path fill="#404B9C" opacity="1.000000" stroke="none" 
	d="
M280.664124,412.652893 
	C266.619049,412.957977 252.275436,412.980591 237.462448,413.005676 
	C237.550980,412.693268 238.109879,412.101837 238.666611,412.103851 
	C252.566437,412.154663 266.466003,412.268097 280.664124,412.652893 
z"/>
<path fill="#4E5387" opacity="1.000000" stroke="none" 
	d="
M350.862488,322.698517 
	C350.591461,315.726776 350.705536,308.822510 350.905090,301.454895 
	C351.315887,306.279877 351.736420,311.564972 351.917084,316.858215 
	C351.983948,318.817596 351.487244,320.796204 350.862488,322.698517 
z"/>
<path fill="#4E5387" opacity="1.000000" stroke="none" 
	d="
M329.359833,323.188416 
	C335.411469,322.826294 341.713806,322.794708 348.475128,322.814423 
	C342.492920,323.083435 336.051727,323.301208 329.359833,323.188416 
z"/>
<path fill="#4E5387" opacity="1.000000" stroke="none" 
	d="
M151.305878,323.206055 
	C156.033203,322.849670 161.035080,322.807251 166.494354,322.834473 
	C161.827972,323.109375 156.704193,323.314697 151.305878,323.206055 
z"/>
<path fill="#3B458A" opacity="1.000000" stroke="none" 
	d="
M286.830811,413.495911 
	C286.547760,413.743988 286.102448,413.817230 285.331665,413.782257 
	C285.560303,413.556366 286.114471,413.438721 286.830811,413.495911 
z"/>
<path fill="#4351A7" opacity="1.000000" stroke="none" 
	d="
M370.157318,256.247040 
	C370.544830,256.174255 371.089508,256.339142 371.762085,256.765839 
	C371.364807,256.846680 370.839630,256.665680 370.157318,256.247040 
z"/>
<path fill="#4E5387" opacity="1.000000" stroke="none" 
	d="
M328.146851,322.380066 
	C328.334869,322.195831 328.603577,322.298981 328.959167,322.681854 
	C328.764923,322.893219 328.492065,322.795166 328.146851,322.380066 
z"/>
<path fill="#404B9C" opacity="1.000000" stroke="none" 
	d="
M234.859406,413.479858 
	C234.957550,413.586365 234.500214,413.763855 234.266754,413.688416 
	C234.216522,413.324280 234.459167,413.244415 234.859406,413.479858 
z"/>
<path fill="#FDFDFA" opacity="1.000000" stroke="none" 
	d="
M169.799774,208.666183 
	C170.288284,208.675171 170.776779,208.684158 172.066833,208.771179 
	C186.548874,208.971802 200.229401,209.094406 213.929047,209.671600 
	C213.944962,217.077454 213.941727,224.028687 213.974670,230.984680 
	C214.010834,230.989410 214.018890,230.916916 213.575928,231.086975 
	C198.503830,231.254776 183.874695,231.252518 169.104630,230.783508 
	C169.242386,223.099915 169.521072,215.883041 169.799774,208.666183 
z"/>
<path fill="#060401" opacity="1.000000" stroke="none" 
	d="
M213.938507,230.979935 
	C213.941727,224.028687 213.944962,217.077454 214.377014,209.490570 
	C221.746979,208.735977 228.688141,208.617035 235.629288,208.498093 
	C236.012802,214.641327 236.491211,220.781174 236.710251,226.930267 
	C236.762161,228.387894 235.944016,229.876495 234.759445,231.366913 
	C227.308029,231.248627 220.623276,231.114273 213.938507,230.979935 
z"/>
<path fill="#A19E96" opacity="1.000000" stroke="none" 
	d="
M259.115234,140.082367 
	C259.147217,140.105927 259.033661,140.557343 258.824493,140.864731 
	C258.551971,141.267654 258.413208,141.399994 258.438660,141.452148 
	C258.533905,141.647263 258.682922,141.816132 258.811798,141.994843 
	C258.892944,142.790726 258.974091,143.586609 259.174988,144.766602 
	C259.242859,149.790192 259.190948,154.429642 258.692566,159.695557 
	C251.172775,160.548904 244.099472,160.775787 236.966888,160.536850 
	C236.907623,153.531387 236.907623,146.991745 236.907623,140.022247 
	C244.821579,140.022247 251.917175,140.022247 259.012756,140.022247 
	C259.012756,140.022247 259.083252,140.058823 259.115234,140.082367 
z"/>
<path fill="#D4B555" opacity="1.000000" stroke="none" 
	d="
M213.974670,230.984680 
	C220.623276,231.114273 227.308029,231.248627 234.379639,231.619476 
	C230.613617,232.225922 226.466003,232.818939 222.306763,232.916565 
	C215.031296,233.087357 215.028366,232.959839 215.018906,240.428238 
	C215.014267,244.088974 214.926529,247.752060 215.029922,251.409744 
	C215.117844,254.519806 213.935425,256.006470 210.652481,255.926575 
	C198.535492,255.631760 186.415726,255.446884 174.296417,255.258743 
	C173.328430,255.243713 172.340866,255.454056 171.388275,255.672531 
	C168.246872,256.393066 167.060654,254.883331 167.061325,251.969131 
	C167.064468,238.490707 167.018829,225.011688 167.171539,211.534943 
	C167.183945,210.440628 168.560455,209.361771 169.551422,208.470947 
	C169.521072,215.883041 169.242386,223.099915 168.894058,231.201813 
	C168.824417,239.289139 168.824417,246.491425 168.824417,253.680847 
	C184.046082,253.680847 198.862274,253.680847 214.018890,253.680847 
	C214.018890,245.823563 214.018890,238.370239 214.018890,230.916916 
	C214.018890,230.916916 214.010834,230.989410 213.974670,230.984680 
z"/>
<path fill="#D4B555" opacity="1.000000" stroke="none" 
	d="
M236.197876,185.208984 
	C235.152267,185.796814 234.108948,186.892685 233.060745,186.897385 
	C212.454575,186.989716 191.847778,186.965652 171.241318,186.902405 
	C170.538208,186.900253 169.837112,186.245071 169.082581,185.432510 
	C169.030075,184.970749 169.188293,184.813248 169.497314,184.862549 
	C170.225235,184.886810 170.644135,184.861771 171.525879,184.878464 
	C192.633453,184.887131 213.278152,184.854050 234.248581,184.874969 
	C235.011856,184.914780 235.449417,184.900589 235.965179,184.966583 
	C236.043396,185.046753 236.197876,185.208984 236.197876,185.208984 
z"/>
<path fill="#D4B555" opacity="1.000000" stroke="none" 
	d="
M235.444214,208.210114 
	C228.688141,208.617035 221.746979,208.735977 214.357880,209.035965 
	C200.229401,209.094406 186.548874,208.971802 172.425201,208.691574 
	C173.081070,208.048126 174.178055,207.144165 175.279465,207.138748 
	C194.182648,207.045807 213.086411,207.049515 231.989899,207.094498 
	C233.080307,207.097092 234.169418,207.633911 235.444214,208.210114 
z"/>
<path fill="#D4B555" opacity="1.000000" stroke="none" 
	d="
M123.420830,224.685318 
	C123.130890,202.982880 123.074493,180.944092 123.092850,158.440582 
	C123.409584,158.576553 123.864044,159.177704 123.862839,159.777939 
	C123.819748,181.301682 123.734108,202.825317 123.420830,224.685318 
z"/>
<path fill="#D4B555" opacity="1.000000" stroke="none" 
	d="
M257.986664,162.998856 
	C252.974823,163.328857 247.960403,163.942078 242.952011,163.896133 
	C239.182251,163.861557 237.704590,164.821487 237.815735,168.900238 
	C237.960571,174.215485 237.263199,179.553696 236.563049,185.045502 
	C236.197876,185.208984 236.043396,185.046753 236.003998,184.578995 
	C235.952240,183.063461 235.939911,182.015686 235.950760,180.644958 
	C235.964127,179.890625 235.954330,179.459213 235.978912,178.622330 
	C235.984650,177.132935 235.956009,176.049042 235.949814,174.599640 
	C235.951309,173.502579 235.930389,172.771011 235.951889,171.607925 
	C236.290024,168.394287 236.585739,165.612152 236.865143,162.834564 
	C236.848831,162.839111 236.826340,162.807709 237.304352,162.841522 
	C244.517120,162.916519 251.251892,162.957687 257.986664,162.998856 
z"/>
<path fill="#D4B555" opacity="1.000000" stroke="none" 
	d="
M166.107376,163.478058 
	C166.462204,163.032639 167.011322,162.951767 168.120667,162.878815 
	C168.680878,162.886703 168.928375,163.093903 168.951447,163.415100 
	C169.042740,164.159698 169.110977,164.583069 169.148590,165.462799 
	C169.142776,169.272873 169.167572,172.626587 169.149536,176.239288 
	C169.128357,176.671936 169.150009,176.845581 169.138367,177.440857 
	C169.145233,179.551254 169.185410,181.240021 169.165863,183.241119 
	C169.133530,183.973404 169.160919,184.393326 169.188293,184.813248 
	C169.188293,184.813248 169.030075,184.970749 168.949997,185.050537 
	C168.268890,183.610580 167.263214,182.122925 167.139648,180.565277 
	C166.698441,175.003906 166.556732,169.418777 166.107376,163.478058 
z"/>
<path fill="#A69F86" opacity="1.000000" stroke="none" 
	d="
M257.994110,162.999527 
	C251.251892,162.957687 244.517120,162.916519 237.313477,162.538452 
	C236.905106,161.801941 236.965622,161.402298 237.026154,161.002670 
	C244.099472,160.775787 251.172775,160.548904 258.633057,160.158035 
	C259.059662,160.458923 259.099274,160.923798 258.853119,161.798676 
	C258.265198,162.385925 258.077484,162.645844 258.004211,162.988419 
	C258.004211,162.988419 258.001556,163.000198 257.994110,162.999527 
z"/>
<path fill="#D4B555" opacity="1.000000" stroke="none" 
	d="
M123.544800,231.209976 
	C123.060280,230.023117 123.032631,228.916718 123.092255,227.406158 
	C124.746796,228.019028 126.245911,229.765625 127.893829,229.919586 
	C133.379852,230.432190 138.919281,230.373047 144.644394,230.898621 
	C137.900909,231.272919 130.951279,231.281662 123.544800,231.209976 
z"/>
<path fill="#D4B555" opacity="1.000000" stroke="none" 
	d="
M146.017212,162.540710 
	C151.639023,162.427628 157.380051,162.692398 163.589569,163.025391 
	C158.084198,163.035248 152.110321,162.976898 146.017212,162.540710 
z"/>
<path fill="#D4B555" opacity="1.000000" stroke="none" 
	d="
M125.204071,140.489426 
	C130.720337,140.243118 136.571213,140.252380 142.752853,140.513306 
	C137.235306,140.758286 131.386993,140.751648 125.204071,140.489426 
z"/>
<path fill="#D4B555" opacity="1.000000" stroke="none" 
	d="
M123.411026,155.693848 
	C123.133598,151.994690 123.089226,147.965424 123.116249,143.482239 
	C123.339790,147.140121 123.491936,151.251923 123.411026,155.693848 
z"/>
<path fill="#AE954D" opacity="1.000000" stroke="none" 
	d="
M350.975159,254.934265 
	C350.865265,255.139328 350.451355,255.069672 350.242615,255.049438 
	C350.117554,254.681793 350.318665,254.427292 350.886169,254.266174 
	C351.135071,254.266632 351.085083,254.729218 350.975159,254.934265 
z"/>
<path fill="#D4B555" opacity="1.000000" stroke="none" 
	d="
M258.245392,162.929779 
	C258.077484,162.645844 258.265198,162.385925 258.805786,162.146759 
	C258.983429,162.435654 258.797546,162.697754 258.245392,162.929779 
z"/>
<path fill="#D4B555" opacity="1.000000" stroke="none" 
	d="
M145.184357,161.140533 
	C145.494675,161.042374 145.704636,161.277176 145.840393,161.835266 
	C145.630692,161.848007 145.403290,161.619644 145.184357,161.140533 
z"/>
<path fill="#D4B555" opacity="1.000000" stroke="none" 
	d="
M144.179092,141.158432 
	C144.460236,140.982635 144.723969,141.166473 144.983826,141.701385 
	C144.788391,141.757828 144.515625,141.579697 144.179092,141.158432 
z"/>
<path fill="#D4B555" opacity="1.000000" stroke="none" 
	d="
M145.130249,144.202423 
	C145.293777,144.219696 145.402496,144.539963 145.359985,144.983459 
	C145.164322,144.906265 145.119888,144.705856 145.130249,144.202423 
z"/>
<path fill="#FC9803" opacity="1.000000" stroke="none" 
	d="
M418.992432,255.507034 
	C424.614166,255.034256 430.248169,255.212234 435.862213,254.954544 
	C439.835297,254.772186 441.149414,256.350250 440.992279,260.179993 
	C440.775513,265.465607 440.949768,270.767273 440.974915,276.530090 
	C434.891235,276.997406 428.787079,276.903137 422.687958,277.037842 
	C419.901306,277.099365 418.889496,276.055847 418.954620,273.287354 
	C419.090393,267.518311 418.996033,261.743805 418.992432,255.507034 
z"/>
<path fill="#E3B45F" opacity="1.000000" stroke="none" 
	d="
M373.960510,256.116577 
	C374.675171,255.529236 375.730164,254.236557 376.826111,254.200836 
	C382.959045,254.000900 389.101898,254.104614 396.200287,254.104614 
	C396.200287,247.108536 396.200287,240.525650 396.321564,233.488342 
	C396.639252,239.724411 396.835663,246.414886 397.056122,253.579102 
	C393.552917,254.408829 390.029510,254.810669 386.497345,255.108795 
	C382.442169,255.451019 378.379303,255.701355 373.960510,256.116577 
z"/>
<path fill="#E3B45F" opacity="1.000000" stroke="none" 
	d="
M376.117737,322.080383 
	C375.258118,321.719116 374.309784,321.104156 373.492065,320.154175 
	C374.424835,320.488312 375.226898,321.157532 376.117737,322.080383 
z"/>
<path fill="#FDFDFD" opacity="1.000000" stroke="none" 
	d="
M236.966888,160.536850 
	C236.965622,161.402298 236.905106,161.801941 236.835464,162.504639 
	C236.826340,162.807709 236.848831,162.839111 236.544739,162.880127 
	C235.817963,163.010635 235.395264,163.100113 234.509796,163.125549 
	C212.693817,163.112595 191.340637,163.163681 169.726685,163.149551 
	C169.286728,163.087540 169.107559,163.090729 168.928375,163.093903 
	C168.928375,163.093903 168.680878,162.886703 168.533005,162.824219 
	C168.314896,162.074570 168.244675,161.387390 168.333710,160.007874 
	C168.642700,152.886322 168.792404,146.457123 168.969574,140.016937 
	C168.997025,140.005951 168.968460,140.057755 169.436310,140.106628 
	C184.480988,140.155487 199.057831,140.155487 213.698944,140.155487 
	C213.698944,124.746696 213.698944,109.865105 213.698944,95.104996 
	C198.326004,95.104996 183.223557,95.104996 168.113495,95.101715 
	C168.105881,95.098427 168.129318,95.124260 168.129318,95.124260 
	C168.149948,89.024429 168.095291,82.922768 168.242844,76.826012 
	C168.280930,75.252296 168.954071,73.693939 170.123779,71.998642 
	C191.282974,71.811157 211.653885,71.753540 232.024796,71.695930 
	C233.626343,72.216736 235.227890,72.737541 236.869812,74.094299 
	C236.910172,81.345833 236.910172,87.761398 236.910172,94.462021 
	C243.952118,94.462021 250.505737,94.462021 257.059357,94.462021 
	C257.856781,95.146149 258.654205,95.830276 259.651550,96.774902 
	C259.819733,110.364059 259.788025,123.692719 259.788910,137.485107 
	C259.611847,138.461014 259.402161,138.973206 259.102600,139.753815 
	C251.917175,140.022247 244.821579,140.022247 236.907623,140.022247 
	C236.907623,146.991745 236.907623,153.531387 236.966888,160.536850 
z"/>
<path fill="#9E9E9E" opacity="1.000000" stroke="none" 
	d="
M232.030823,71.371445 
	C211.653885,71.753540 191.282974,71.811157 170.448639,71.784218 
	C169.985199,65.747032 169.985199,59.794403 169.985199,53.361416 
	C174.105225,52.874798 177.818497,52.101974 181.540558,52.057114 
	C194.499649,51.900917 207.462540,51.919392 220.422302,52.045204 
	C224.203720,52.081913 227.995911,52.586147 231.745010,53.136131 
	C232.564056,53.256279 233.899109,54.544987 233.843979,55.198219 
	C233.396881,60.494244 232.674988,65.767067 232.030823,71.371445 
z"/>
<path fill="#FEFEFE" opacity="1.000000" stroke="none" 
	d="
M146.103531,140.129944 
	C145.999115,139.652603 145.894714,139.175262 145.670059,138.350067 
	C145.644104,123.988800 145.738388,109.975410 145.795502,95.500053 
	C152.905396,94.984856 160.052490,94.931625 167.664459,95.001328 
	C168.129318,95.124260 168.105881,95.098427 168.210663,95.554550 
	C168.324905,105.792892 168.269348,115.575790 168.371246,125.357040 
	C168.422318,130.258820 168.760254,135.157608 168.968460,140.057755 
	C168.968460,140.057755 168.997025,140.005951 168.571091,139.768585 
	C160.797943,139.730789 153.450745,139.930359 146.103531,140.129944 
z"/>
<path fill="#9D9D9D" opacity="1.000000" stroke="none" 
	d="
M257.129089,94.093979 
	C250.505737,94.462021 243.952118,94.462021 236.910172,94.462021 
	C236.910172,87.761398 236.910172,81.345833 236.971268,74.464828 
	C242.843262,74.002098 248.659760,73.871796 254.460419,74.116997 
	C255.655121,74.167511 257.786530,75.610428 257.793488,76.426010 
	C257.842743,82.190536 257.450317,87.958839 257.129089,94.093979 
z"/>
<path fill="#A19E96" opacity="1.000000" stroke="none" 
	d="
M274.993652,137.631516 
	C273.935120,137.999451 272.869019,138.000732 271.403320,138.002533 
	C271.143982,136.804504 271.284302,135.605957 271.607025,132.849380 
	C273.303650,135.066391 274.144867,136.165634 274.993652,137.631516 
z"/>
<path fill="#D4B555" opacity="1.000000" stroke="none" 
	d="
M417.017975,232.252808 
	C417.167755,232.212219 417.461060,232.375259 417.868652,232.766846 
	C417.653717,232.900177 417.379913,232.720505 417.017975,232.252808 
z"/>
<path fill="#3E50B4" opacity="1.000000" stroke="none" 
	d="
M375.004761,244.943741 
	C375.163391,231.274796 373.349152,233.125381 386.206055,233.004105 
	C387.531006,232.991608 388.867798,233.106018 390.178711,232.968018 
	C393.317780,232.637619 394.015076,234.151642 394.098633,237.049667 
	C394.531708,252.069275 394.604279,252.067200 381.275482,252.055222 
	C375.018066,252.049606 375.018066,252.049576 375.004761,244.943741 
z"/>
<path fill="#A3A3A3" opacity="1.000000" stroke="none" 
	d="
M146.334045,140.424927 
	C153.450745,139.930359 160.797943,139.730789 168.543640,139.779556 
	C168.792404,146.457123 168.642700,152.886322 168.284882,159.664551 
	C162.207245,160.303757 156.336899,160.744904 150.469147,160.712708 
	C149.639908,160.708160 148.216827,158.443726 148.114166,157.142776 
	C147.801056,153.175476 148.126968,149.161560 147.932388,145.179077 
	C147.858841,143.674011 147.042374,142.205231 146.334045,140.424927 
z"/>
<path fill="#A69F86" opacity="1.000000" stroke="none" 
	d="
M258.866638,141.751450 
	C258.682922,141.816132 258.533905,141.647263 258.438660,141.452148 
	C258.413208,141.399994 258.551971,141.267654 258.768311,141.090591 
	C258.921265,141.009064 258.921509,141.508057 258.866638,141.751450 
z"/>
<path fill="#050301" opacity="1.000000" stroke="none" 
	d="
M213.575928,231.086975 
	C214.018890,238.370239 214.018890,245.823563 214.018890,253.680847 
	C198.862274,253.680847 184.046082,253.680847 168.824417,253.680847 
	C168.824417,246.491425 168.824417,239.289139 169.034988,231.668549 
	C183.874695,231.252518 198.503830,231.254776 213.575928,231.086975 
z"/>
<path fill="#9E9D9E" opacity="1.000000" stroke="none" 
	d="
M169.987442,163.214767 
	C191.340637,163.163681 212.693817,163.112595 234.338379,163.469391 
	C234.297073,166.717026 232.247681,169.825943 235.909470,172.039429 
	C235.930389,172.771011 235.951309,173.502579 235.613770,174.674393 
	C233.390884,176.787872 233.281387,178.152023 235.944534,179.027817 
	C235.954330,179.459213 235.964127,179.890625 235.608856,180.718903 
	C234.803467,182.350845 234.363174,183.585907 233.922867,184.820969 
	C213.278152,184.854050 192.633453,184.887131 171.466537,184.593262 
	C170.371414,183.820496 169.798492,183.374634 169.225571,182.928772 
	C169.185410,181.240021 169.145233,179.551254 169.275955,177.339035 
	C169.496735,176.712860 169.615265,176.574463 169.583847,176.514038 
	C169.483246,176.320587 169.327087,176.156021 169.192368,175.980316 
	C169.167572,172.626587 169.142776,169.272873 169.346375,165.300018 
	C169.712341,164.192184 169.849899,163.703476 169.987442,163.214767 
z"/>
<path fill="#A69F86" opacity="1.000000" stroke="none" 
	d="
M234.248581,184.874969 
	C234.363174,183.585907 234.803467,182.350845 235.585678,181.041840 
	C235.939911,182.015686 235.952240,183.063461 235.925781,184.498810 
	C235.449417,184.900589 235.011856,184.914780 234.248581,184.874969 
z"/>
<path fill="#A69F86" opacity="1.000000" stroke="none" 
	d="
M169.165863,183.241119 
	C169.798492,183.374634 170.371414,183.820496 171.003693,184.551544 
	C170.644135,184.861771 170.225235,184.886810 169.497314,184.862549 
	C169.160919,184.393326 169.133530,183.973404 169.165863,183.241119 
z"/>
<path fill="#A69F86" opacity="1.000000" stroke="none" 
	d="
M235.951889,171.607925 
	C232.247681,169.825943 234.297073,166.717026 234.801163,163.533432 
	C235.395264,163.100113 235.817963,163.010635 236.561066,162.875580 
	C236.585739,165.612152 236.290024,168.394287 235.951889,171.607925 
z"/>
<path fill="#A69F86" opacity="1.000000" stroke="none" 
	d="
M235.978912,178.622330 
	C233.281387,178.152023 233.390884,176.787872 235.591339,175.039886 
	C235.956009,176.049042 235.984650,177.132935 235.978912,178.622330 
z"/>
<path fill="#A69F86" opacity="1.000000" stroke="none" 
	d="
M169.726685,163.149551 
	C169.849899,163.703476 169.712341,164.192184 169.376999,164.843674 
	C169.110977,164.583069 169.042740,164.159698 168.951447,163.415100 
	C169.107559,163.090729 169.286728,163.087540 169.726685,163.149551 
z"/>
<path fill="#A69F86" opacity="1.000000" stroke="none" 
	d="
M169.149536,176.239288 
	C169.327087,176.156021 169.483246,176.320587 169.583847,176.514038 
	C169.615265,176.574463 169.496735,176.712860 169.309235,176.917389 
	C169.150009,176.845581 169.128357,176.671936 169.149536,176.239288 
z"/>
<path fill="#010101" opacity="1.000000" stroke="none" 
	d="
M169.436310,140.106628 
	C168.760254,135.157608 168.422318,130.258820 168.371246,125.357040 
	C168.269348,115.575790 168.324905,105.792892 168.218262,95.557838 
	C183.223557,95.104996 198.326004,95.104996 213.698944,95.104996 
	C213.698944,109.865105 213.698944,124.746696 213.698944,140.155487 
	C199.057831,140.155487 184.480988,140.155487 169.436310,140.106628 
z"/>
</svg>